{
  "accessors": [
    {
      "bufferView": 2,
      "componentType": 5126,
      "count": 2754,
      "max": [
        0.6648489236831665,
        0.50043505430221558,
        -2.5176379494951107e-05
      ],
      "min": [
        -0.66623115539550781,
        -0.49878206849098206,
        -1.8855918645858765
      ],
      "type": "VEC3"
    },
    {
      "bufferView": 2,
      "byteOffset": 33048,
      "componentType": 5126,
      "count": 2754,
      "max": [
        0.99999189376831055,
        0.99999260902404785,
        0.99997889995574951
      ],
      "min": [
        -0.99873930215835571,
        -0.99999642372131348,
        -0.11011157184839249
      ],
      "type": "VEC3"
    },
    {
      "bufferView": 1,
      "componentType": 5126,
      "count": 2754,
      "max": [
        1.0000033378601074,
        1.0001004934310913
      ],
      "min": [
        -0.00033046767930500209,
        -7.0333480834960938e-06
      ],
      "type": "VEC2"
    },
    {
      "bufferView": 0,
      "componentType": 5125,
      "count": 15726,
      "max": [
        2753
      ],
      "min": [
        0
      ],
      "type": "SCALAR"
    }
  ],
  "asset": {
    "extras": {
      "author": "armthethinker (https://sketchfab.com/armthethinker)",
      "license": "CC-BY-4.0 (http://creativecommons.org/licenses/by/4.0/)",
      "source": "https://sketchfab.com/3d-models/hiking-0882553ee7d04e13820c42968408a8a3",
      "title": "Hiking"
    },
    "generator": "Sketchfab-9.94.0",
    "version": "2.0"
  },
  "bufferViews": [
    {
      "buffer": 0,
      "byteLength": 62904,
      "byteOffset": 0,
      "name": "floatBufferViews",
      "target": 34963
    },
    {
      "buffer": 0,
      "byteLength": 22032,
      "byteOffset": 62904,
      "byteStride": 8,
      "name": "floatBufferViews",
      "target": 34962
    },
    {
      "buffer": 0,
      "byteLength": 66096,
      "byteOffset": 84936,
      "byteStride": 12,
      "name": "floatBufferViews",
      "target": 34962
    }
  ],
  "buffers": [
    {
      "byteLength": 151032,
      "uri": "scene.bin"
    }
  ],
  "extensionsUsed": [
    "KHR_materials_unlit"
  ],
  "images": [
    {
      "uri": "textures/hiking-depth_baseColor.png"
    }
  ],
  "materials": [
    {
      "alphaCutoff": 0.68876961615866827,
      "alphaMode": "MASK",
      "doubleSided": true,
      "extensions": {
        "KHR_materials_unlit": {}
      },
      "name": "hiking-depth",
      "pbrMetallicRoughness": {
        "baseColorFactor": [
          1,
          1,
          1,
          1
        ],
        "baseColorTexture": {
          "index": 0,
          "texCoord": 0
        },
        "metallicFactor": 0,
        "roughnessFactor": 1
      }
    }
  ],
  "meshes": [
    {
      "primitives": [
        {
          "attributes": {
            "NORMAL": 1,
            "POSITION": 0,
            "TEXCOORD_0": 2
          },
          "indices": 3,
          "material": 0,
          "mode": 4
        }
      ]
    }
  ],
  "nodes": [
    {
      "children": [
        1
      ],
      "name": "RootNode (gltf orientation matrix)",
      "rotation": [
        -0.70710678118654746,
        -0,
        -0,
        0.70710678118654757
      ]
    },
    {
      "children": [
        2
      ],
      "matrix": [
        0.71428573131561279,
        0,
        0,
        0,
        0,
        0.71428573131561279,
        0,
        0,
        0,
        0,
        0.71428573131561279,
        0,
        0,
        0,
        0,
        1
      ],
      "name": "RootNode (model correction matrix)"
    },
    {
      "children": [
        3
      ],
      "name": "root"
    },
    {
      "children": [
        4
      ],
      "matrix": [
        1,
        0,
        0,
        0,
        0,
        2.2204460492503131e-16,
        1,
        0,
        0,
        -1,
        2.2204460492503131e-16,
        0,
        0,
        0,
        0,
        1
      ],
      "name": "GLTF_SceneRootNode"
    },
    {
      "children": [
        5
      ],
      "matrix": [
        -0.028692756514423046,
        -2.0200480108090169e-09,
        -0.99958827810434236,
        0,
        -0.0790052852571069,
        0.99687161757882647,
        0.0022678111069941373,
        0,
        0.99646118370212866,
        0.079037826803207534,
        -0.028602994758922806,
        0,
        0.38730263710021973,
        1.5067514181137085,
        0.22551800310611725,
        1
      ],
      "name": "hiking-depth_0"
    },
    {
      "mesh": 0,
      "name": ""
    }
  ],
  "samplers": [
    {
      "magFilter": 9729,
      "minFilter": 9987,
      "wrapS": 10497,
      "wrapT": 10497
    }
  ],
  "scene": 0,
  "scenes": [
    {
      "name": "OSG_Scene",
      "nodes": [
        0
      ]
    }
  ],
  "textures": [
    {
      "sampler": 0,
      "source": 0
    }
  ]
}

